<?xml version="1.0" encoding="iso-8859-1"?>
<!-- Generator: Adobe Illustrator 19.0.0, SVG Export Plug-In . SVG Version: 6.00 Build 0)  -->
<svg version="1.1" id="Layer_1" xmlns="http://www.w3.org/2000/svg" xmlns:xlink="http://www.w3.org/1999/xlink" x="0px" y="0px"
	 viewBox="0 0 512 512" style="enable-background:new 0 0 512 512;" xml:space="preserve">
<path style="fill:#FFB655;" d="M418.909,209.455V23.273C418.909,10.42,408.489,0,395.636,0s-23.273,10.42-23.273,23.273v69.818
	h-46.545V23.273C325.818,10.42,315.398,0,302.545,0H256h-46.545c-7.23,0-13.689,3.297-17.959,8.47
	c-1.898,2.299-3.362,4.968-4.268,7.883c-0.68,2.185-1.046,4.51-1.046,6.92v69.818h-46.545V23.273c0-2.41-0.366-4.735-1.046-6.92
	c-0.906-2.915-2.371-5.584-4.268-7.883C130.053,3.297,123.594,0,116.364,0s-13.689,3.297-17.959,8.47
	c-1.898,2.299-3.362,4.968-4.268,7.883c-0.68,2.185-1.046,4.51-1.046,6.92v186.182c0,12.853,10.42,23.273,23.273,23.273h52.283
	L157.01,372.364h-40.647c-7.23,0-13.689,3.297-17.959,8.468c-1.898,2.299-3.362,4.968-4.268,7.883
	c-0.68,2.186-1.046,4.512-1.046,6.921v93.091c0,12.853,10.42,23.273,23.273,23.273H256h139.636c12.853,0,23.273-10.42,23.273-23.273
	v-93.091c0-12.853-10.42-23.273-23.273-23.273H354.99l-11.636-139.636h52.283C408.489,232.727,418.909,222.307,418.909,209.455z"/>
<polygon style="fill:#CC7400;" points="343.353,232.727 320,232.727 296.647,232.727 256,232.727 215.353,232.727 192,232.727 
	168.647,232.727 157.01,372.364 180.364,372.364 203.717,372.364 256,372.364 308.283,372.364 331.636,372.364 354.99,372.364 "/>
<polygon style="fill:#AA6100;" points="203.717,372.364 256,372.364 256,232.727 215.353,232.727 192,232.727 168.647,232.727 
	157.01,372.364 180.364,372.364 "/>
<g>
	<path style="fill:#EE8700;" d="M215.353,232.727H256V0h-46.545c-12.853,0-23.273,10.42-23.273,23.273v69.818h-46.545V23.273
		C139.636,10.42,129.216,0,116.364,0S93.091,10.42,93.091,23.273v186.182c0,12.853,10.42,23.273,23.273,23.273h52.283H192H215.353z"
		/>
	<path style="fill:#EE8700;" d="M203.717,372.364h-23.353H157.01h-40.647c-12.853,0-23.273,10.42-23.273,23.273v93.091
		c0,12.853,10.42,23.273,23.273,23.273H256V372.364H203.717z"/>
</g>
<g>
</g>
<g>
</g>
<g>
</g>
<g>
</g>
<g>
</g>
<g>
</g>
<g>
</g>
<g>
</g>
<g>
</g>
<g>
</g>
<g>
</g>
<g>
</g>
<g>
</g>
<g>
</g>
<g>
</g>
</svg>
