<?xml version="1.0" encoding="iso-8859-1"?>
<!-- Generator: Adobe Illustrator 19.0.0, SVG Export Plug-In . SVG Version: 6.00 Build 0)  -->
<svg version="1.1" id="Layer_1" xmlns="http://www.w3.org/2000/svg" xmlns:xlink="http://www.w3.org/1999/xlink" x="0px" y="0px"
	 viewBox="0 0 512 512" style="enable-background:new 0 0 512 512;" xml:space="preserve">
<path style="fill:#7c5835;" d="M313.297,153.313H198.702c-5.041,0-9.811-2.277-12.981-6.196
	c-12.939-15.999-20.064-36.162-20.064-56.774C165.657,40.527,206.184,0,255.999,0s90.342,40.527,90.342,90.342
	c0,20.612-7.125,40.775-20.064,56.774C323.108,151.036,318.338,153.313,313.297,153.313z"/>
<path style="fill:#66442c;" d="M255.999,0v153.313h57.297c5.041,0,9.811-2.277,12.981-6.196
	c12.939-15.999,20.064-36.162,20.064-56.774C346.342,40.527,305.815,0,255.999,0z"/>
<path style="fill:#7c5835;" d="M349.764,447.8h-187.53c-10.267,0-18.107-9.194-16.486-19.331l36.824-230.282
	c1.294-8.101,8.282-14.06,16.486-14.06H312.94c8.203,0,15.191,5.959,16.486,14.06l36.824,230.282
	C367.871,438.607,360.031,447.8,349.764,447.8z"/>
<g>
	<path style="fill:#66442c;" d="M366.251,428.468l-36.824-230.281c-1.294-8.101-8.282-14.06-16.486-14.06h-56.941V447.8h93.765
		C360.031,447.8,367.871,438.607,366.251,428.468z"/>
	<path style="fill:#66442c;" d="M349.764,217.521H162.236c-9.22,0-16.696-7.475-16.696-16.696v-64.208
		c0-9.22,7.475-16.696,16.696-16.696h187.529c9.22,0,16.696,7.475,16.696,16.696v64.208
		C366.46,210.046,358.985,217.521,349.764,217.521z"/>
	<path style="fill:#66442c;" d="M424.518,512H87.481c-9.22,0-16.696-7.475-16.696-16.696v-64.2c0-9.22,7.475-16.696,16.696-16.696
		h337.037c9.22,0,16.696,7.475,16.696,16.696v64.2C441.213,504.525,433.739,512,424.518,512z"/>
</g>
<g>
	<path style="fill:#4c2b21;" d="M349.764,119.922h-93.765v97.599h93.765c9.22,0,16.696-7.475,16.696-16.696v-64.208
		C366.46,127.397,358.985,119.922,349.764,119.922z"/>
	<path style="fill:#4c2b21;" d="M424.518,414.408H255.999V512h168.518c9.22,0,16.696-7.475,16.696-16.696v-64.2
		C441.213,421.884,433.739,414.408,424.518,414.408z"/>
</g>
<g>
</g>
<g>
</g>
<g>
</g>
<g>
</g>
<g>
</g>
<g>
</g>
<g>
</g>
<g>
</g>
<g>
</g>
<g>
</g>
<g>
</g>
<g>
</g>
<g>
</g>
<g>
</g>
<g>
</g>
</svg>
