<?xml version="1.0" encoding="iso-8859-1"?>
<!-- Generator: Adobe Illustrator 19.0.0, SVG Export Plug-In . SVG Version: 6.00 Build 0)  -->
<svg version="1.1" id="Layer_1" xmlns="http://www.w3.org/2000/svg" xmlns:xlink="http://www.w3.org/1999/xlink" x="0px" y="0px"
	 viewBox="0 0 512 512" style="enable-background:new 0 0 512 512;" xml:space="preserve">
<circle style="fill:#A0EBFF;" cx="256" cy="256" r="256"/>
<path style="fill:#71C6DE;" d="M266.742,511.759c119.863-4.949,218.44-92.305,240.585-206.917L284.712,82.229l-26.176,19.768
	v242.259l18.189,18.189l-101.017,58.28L266.742,511.759z"/>
<path style="fill:#FFC61B;" d="M268.479,130.962h-24.957c-2.477,0-4.679-1.586-5.461-3.936l-12.79-38.371
	c-1.243-3.727,1.533-7.578,5.461-7.578h50.538c3.929,0,6.704,3.849,5.461,7.578l-12.79,38.371
	C273.156,129.377,270.957,130.962,268.479,130.962z"/>
<path style="fill:#E09112;" d="M281.269,81.077h-25.843v49.885h13.053c2.477,0,4.679-1.586,5.461-3.936l12.79-38.371
	C287.973,84.928,285.198,81.077,281.269,81.077z"/>
<path style="fill:#FFFFFF;" d="M322.657,170.667h-38.212v-56.889h-56.889v56.889h-38.214c-10.314,0-18.675,8.361-18.675,18.675
	V407.99c0,10.314,8.361,18.675,18.675,18.675h133.315c10.314,0,18.675-8.361,18.675-18.675V189.342
	C341.333,179.028,332.972,170.667,322.657,170.667z"/>
<path style="fill:#D0D1D3;" d="M322.657,170.667h-38.212v-56.889h-29.019v312.889h67.232c10.314,0,18.675-8.361,18.675-18.675
	v-218.65C341.333,179.028,332.972,170.667,322.657,170.667z"/>
<rect x="199.111" y="199.111" style="fill:#59595B;" width="113.778" height="199.111"/>
<rect x="255.431" y="199.111" style="fill:#272525;" width="57.458" height="199.111"/>
<g>
	<path style="fill:#FFEDB5;" d="M234.863,341.333h-5.151c-1.339,0-2.424-1.086-2.424-2.424v-15.151c0-1.339,1.086-2.424,2.424-2.424
		h5.151c1.339,0,2.424,1.086,2.424,2.424v15.151C237.287,340.247,236.203,341.333,234.863,341.333z"/>
	<path style="fill:#FFEDB5;" d="M246.72,341.333h-5.151c-1.339,0-2.424-1.086-2.424-2.424v-15.151c0-1.339,1.086-2.424,2.424-2.424
		h5.151c1.339,0,2.424,1.086,2.424,2.424v15.151C249.144,340.247,248.058,341.333,246.72,341.333z"/>
	<path style="fill:#FFEDB5;" d="M282.288,341.333h-5.151c-1.339,0-2.424-1.086-2.424-2.424v-15.151c0-1.339,1.086-2.424,2.424-2.424
		h5.151c1.339,0,2.424,1.086,2.424,2.424v15.151C284.712,340.247,283.627,341.333,282.288,341.333z"/>
	<path style="fill:#FFEDB5;" d="M270.433,341.333h-5.151c-1.339,0-2.424-1.086-2.424-2.424v-15.151c0-1.339,1.086-2.424,2.424-2.424
		h5.151c1.339,0,2.424,1.086,2.424,2.424v15.151C272.856,340.247,271.77,341.333,270.433,341.333z"/>
	<path style="fill:#FFEDB5;" d="M258.576,341.333h-5.151c-1.339,0-2.424-1.086-2.424-2.424v-15.151c0-1.339,1.086-2.424,2.424-2.424
		h5.151c1.339,0,2.424,1.086,2.424,2.424v15.151C260.999,340.247,259.915,341.333,258.576,341.333z"/>
</g>
<path style="fill:#FFFFFF;" d="M296,286.332c0-19.33-17.91-35-40-35c-22.092,0-40,15.67-40,35c0,8.873,3.781,16.968,10,23.138
	v15.296c0,3.625,2.939,6.566,6.566,6.566h46.87c3.627,0,6.566-2.939,6.566-6.566V309.47C292.219,303.302,296,295.205,296,286.332z"
	/>
<path style="fill:#D0D1D3;" d="M256,251.332c-0.193,0-0.383,0.01-0.574,0.012v79.989h24.009c3.627,0,6.566-2.939,6.566-6.566V309.47
	c6.22-6.17,10-14.265,10-23.138C296,267.002,278.092,251.332,256,251.332z"/>
<ellipse transform="matrix(-0.2867 -0.958 0.958 -0.2867 22.1271 613.0439)" style="fill:#59595B;" cx="239.285" cy="298.285" rx="7.878" ry="11.819"/>
<ellipse transform="matrix(-0.2867 0.958 -0.958 -0.2867 636.7303 122.5368)" style="fill:#272525;" cx="272.748" cy="298.308" rx="7.878" ry="11.819"/>
<circle style="fill:#59595B;" cx="249.708" cy="316.337" r="2.424"/>
<circle style="fill:#272525;" cx="262.292" cy="316.337" r="2.424"/>
<g>
</g>
<g>
</g>
<g>
</g>
<g>
</g>
<g>
</g>
<g>
</g>
<g>
</g>
<g>
</g>
<g>
</g>
<g>
</g>
<g>
</g>
<g>
</g>
<g>
</g>
<g>
</g>
<g>
</g>
</svg>
