<?xml version="1.0" encoding="iso-8859-1"?>
<!-- Generator: Adobe Illustrator 19.0.0, SVG Export Plug-In . SVG Version: 6.00 Build 0)  -->
<svg version="1.1" id="Layer_1" xmlns="http://www.w3.org/2000/svg" xmlns:xlink="http://www.w3.org/1999/xlink" x="0px" y="0px"
	 viewBox="0 0 512 512" style="enable-background:new 0 0 512 512;" xml:space="preserve">
<g>
	<circle style="fill:#A0EBFF;" cx="256" cy="256" r="256"/>
	<path style="fill:#71C6DE;" d="M342.456,187.53h-44.431v-49.71h7.224v-26.675H204.667v26.675h7.224v49.71H170.25
		c-8.945,0-16.2,7.255-16.2,16.2v218.854h204.605V203.73C358.656,194.785,351.406,187.53,342.456,187.53z"/>
	<path style="fill:#48AFCC;" d="M342.456,187.53h-44.431v-49.71h7.224v-26.675h-50.621v26.675h-42.737v18.918h42.737v265.841
		h104.028V203.73C358.656,194.785,351.406,187.53,342.456,187.53z"/>
	<rect x="220.104" y="73.457" style="fill:#FC611F;" width="70.062" height="37.693"/>
	<rect x="255.135" y="73.457" style="fill:#E34E10;" width="35.031" height="37.693"/>
	<rect x="179.763" y="230.139" style="fill:#FFFFFF;" width="149.862" height="153.17"/>
	<rect x="254.218" y="230.139" style="fill:#B6F0FF;" width="75.418" height="153.17"/>
	<path style="fill:#F7BF00;" d="M293.427,205.056v147.922h105.871V205.056H293.427z M346.363,251.5
		c-8.279,0-14.991-6.712-14.991-14.991c0-8.279,6.712-14.991,14.991-14.991c8.279,0,14.991,6.712,14.991,14.991
		C361.354,244.787,354.642,251.5,346.363,251.5z"/>
	<path style="fill:#F7BF00;" d="M346.363,205.056v16.466c8.279,0,14.991,6.712,14.991,14.991s-6.712,14.991-14.991,14.991v101.478
		h52.936V205.056H346.363z"/>
	<path style="fill:#FDF35A;" d="M293.427,198.897v147.922h105.871V198.897H293.427z M346.363,245.34
		c-8.279,0-14.991-6.712-14.991-14.991s6.712-14.991,14.991-14.991c8.279,0,14.991,6.712,14.991,14.991
		S354.642,245.34,346.363,245.34z"/>
	<path style="fill:#F7BF00;" d="M346.363,198.897v16.466c8.279,0,14.991,6.712,14.991,14.991c0,8.279-6.712,14.991-14.991,14.991
		v101.478h52.936V198.897H346.363z"/>
	<path style="fill:#FC611F;" d="M347.284,227.328c-2.98,0-5.402-2.417-5.402-5.402c0-29.445-21.059-54.216-50.074-58.895
		c-2.944-0.476-4.946-3.246-4.47-6.19c0.471-2.944,3.251-4.966,6.19-4.47c34.278,5.53,59.156,34.78,59.156,69.555
		C352.686,224.911,350.269,227.328,347.284,227.328z"/>
</g>
<g>
</g>
<g>
</g>
<g>
</g>
<g>
</g>
<g>
</g>
<g>
</g>
<g>
</g>
<g>
</g>
<g>
</g>
<g>
</g>
<g>
</g>
<g>
</g>
<g>
</g>
<g>
</g>
<g>
</g>
</svg>
