<?xml version="1.0" encoding="iso-8859-1"?>
<!-- Generator: Adobe Illustrator 19.0.0, SVG Export Plug-In . SVG Version: 6.00 Build 0)  -->
<svg version="1.1" id="Layer_1" xmlns="http://www.w3.org/2000/svg" xmlns:xlink="http://www.w3.org/1999/xlink" x="0px" y="0px"
	 viewBox="0 0 460 460" style="enable-background:new 0 0 460 460;" xml:space="preserve">
<g id="XMLID_955_">
	<path id="XMLID_956_" style="fill:#FFC85F;" d="M154.2,447.199l293-293C415.869,64.419,330.464,0,230,0C102.975,0,0,102.974,0,230
		C0,330.464,64.42,415.869,154.2,447.199z"/>
	<path id="XMLID_957_" style="fill:#FFAE46;" d="M460,230c0-26.562-4.517-52.064-12.801-75.801L353,60L107,400l47.199,47.199
		C177.936,455.483,203.439,460,230,460C357.026,460,460,357.025,460,230z"/>
	<polygon id="XMLID_958_" style="fill:#FFF2D4;" points="255,360 255,390 127,390 127,360 191,350 	"/>
	<polygon id="XMLID_959_" style="fill:#FFFFFF;" points="245,340 255,360 127,360 127,330 	"/>
	<polygon id="XMLID_960_" style="fill:#DB3916;" points="137,340 121.667,330 107,340 107,400 245,400 245,380 137,380 	"/>
	<polygon id="XMLID_961_" style="fill:#6E1D0B;" points="137,340 107,340 107,60 137,60 147,200 	"/>
	<polygon id="XMLID_962_" style="fill:#DB3916;" points="245,340 137,340 137,60 245,60 255,200 	"/>
	<polygon id="XMLID_963_" style="fill:#FFE278;" points="353,360 353,390 245,390 245,360 299,350 	"/>
	<rect id="XMLID_964_" x="245" y="330" style="fill:#FFF2D4;" width="108" height="30"/>
	<rect id="XMLID_965_" x="245" y="60" style="fill:#6E1D0B;" width="108" height="280"/>
	<path id="XMLID_966_" style="fill:#FC5A37;" d="M182,80c0,13.807-11.193,25-25,25v190c13.807,0,25,11.193,25,25h63l10-120L245,80
		H182z"/>
	<path id="XMLID_967_" style="fill:#DB3916;" d="M308,80c0,13.807,11.193,25,25,25v190c-13.807,0-25,11.193-25,25h-63V80H308z"/>
	<polygon id="XMLID_968_" style="fill:#6E1D0B;" points="353,380 353,400 245,400 245,380 297.667,380 	"/>
</g>
<g>
</g>
<g>
</g>
<g>
</g>
<g>
</g>
<g>
</g>
<g>
</g>
<g>
</g>
<g>
</g>
<g>
</g>
<g>
</g>
<g>
</g>
<g>
</g>
<g>
</g>
<g>
</g>
<g>
</g>
</svg>
